<svg id="BACKGROUND" xmlns="http://www.w3.org/2000/svg" xmlns:xlink="http://www.w3.org/1999/xlink" viewBox="0 0 150 150"><defs><style>.cls-1{fill:url(#radial-gradient);}.cls-2{fill:none;stroke-miterlimit:10;stroke-width:3px;stroke:url(#linear-gradient);}</style><radialGradient id="radial-gradient" cx="75" cy="75" r="75" gradientUnits="userSpaceOnUse"><stop offset="0" stop-color="#38374f"/><stop offset="1" stop-color="#21202f"/></radialGradient><linearGradient id="linear-gradient" x1="39.24" y1="75" x2="110.76" y2="75" gradientUnits="userSpaceOnUse"><stop offset="0" stop-color="#66e8ff"/><stop offset="1" stop-color="#66adff"/></linearGradient></defs><title>icon-question-04</title><rect class="cls-1" width="150" height="150"/><path class="cls-2" d="M63.46,103.3Q63.55,91.92,66,86.94T77.17,74a89.63,89.63,0,0,0,10-13.92,29.57,29.57,0,0,0,3.45-14.6q0-9.42-4.18-14.68T74.5,25.55a14.69,14.69,0,0,0-11,4.84q-4.59,4.83-4.6,13.4H40.93l-.18-.51Q40.47,28.46,50,20.11T74.5,11.76q16.27,0,25.52,9t9.24,24.48a37.87,37.87,0,0,1-5.56,20.21,91,91,0,0,1-14.76,17.9q-4.51,4.37-5.66,8.35a44.2,44.2,0,0,0-1.15,11.6Zm19,34.94H63.37v-17H82.5Z"/></svg>